<?xml version="1.0" encoding="utf-8"?>
<!-- Generator: Adobe Illustrator 24.2.0, SVG Export Plug-In . SVG Version: 6.00 Build 0)  -->
<svg version="1.1" id="Layer_1" xmlns="http://www.w3.org/2000/svg" xmlns:xlink="http://www.w3.org/1999/xlink" x="0px" y="0px"
	 viewBox="0 0 614.1 114.7" style="enable-background:new 0 0 614.1 114.7;" xml:space="preserve">
<style type="text/css">
	.st0{fill:#333333;stroke:#000000;stroke-width:1.000000e-02;stroke-miterlimit:10;}
</style>
<g>
	<path class="st0" d="M40.2,10c5.1-0.1,10.1,0.5,15,1.7c3.7,0.9,7.3,2.6,10.4,4.9c2.6,2,4.7,4.7,6,7.8c1.3,3.3,2,6.8,1.9,10.3
		c0,2.3-0.4,4.5-1.1,6.7c-0.7,2.2-1.8,4.2-3.3,6c-1.6,1.9-3.4,3.6-5.5,5c-2.4,1.6-5.1,2.8-7.8,3.6c7,1.3,12.2,3.8,15.7,7.4
		s5.2,8.4,5.2,14.3c0.1,3.8-0.7,7.5-2.2,10.9c-1.5,3.3-3.7,6.2-6.5,8.5c-3.1,2.5-6.6,4.4-10.5,5.5c-4.6,1.4-9.3,2-14.1,1.9H10V10
		H40.2z M22.7,20.1v32.3h16.9c3.2,0.1,6.4-0.3,9.5-1.2c2.4-0.7,4.6-1.8,6.6-3.3c1.7-1.3,3-3.1,3.9-5.1c0.8-2.1,1.3-4.3,1.2-6.6
		c0-5.6-1.7-9.7-5-12.2s-8.5-3.9-15.6-3.9H22.7z M43.2,94.4c3.2,0.1,6.4-0.4,9.4-1.2c2.4-0.7,4.6-1.9,6.5-3.5
		c1.7-1.5,2.9-3.3,3.7-5.4c0.8-2.2,1.2-4.5,1.2-6.9c0.2-4.5-1.7-8.8-5.2-11.6c-3.5-2.8-8.7-4.2-15.6-4.3H22.7v32.9H43.2z"/>
	<path class="st0" d="M131.8,94.4c3.6,0.1,7.2-0.6,10.5-2c3-1.2,5.7-3.1,7.8-5.5c2.2-2.5,3.9-5.4,4.9-8.5c1.2-3.5,1.7-7.2,1.7-10.9
		V10h12.7v57.5c0,5.2-0.8,10.3-2.6,15.2c-1.6,4.5-4.2,8.6-7.5,12.1c-3.3,3.5-7.4,6.2-11.8,8c-10.1,3.9-21.3,3.9-31.4,0
		c-4.5-1.8-8.5-4.5-11.9-8c-3.3-3.5-5.9-7.6-7.5-12.1c-1.8-4.9-2.7-10-2.6-15.2V10h12.7v57.4c0,3.7,0.5,7.4,1.7,10.9
		c1,3.1,2.7,6,4.9,8.5c2.2,2.4,4.9,4.3,7.8,5.6C124.6,93.8,128.2,94.5,131.8,94.4z"/>
	<path class="st0" d="M256.4,20.8h-30.6v83.8H213V20.8h-30.7V10h74L256.4,20.8z"/>
	<path class="st0" d="M334.3,20.8h-30.6v83.8H291V20.8h-30.7V10h74.1V20.8z"/>
	<path class="st0" d="M431.5,57.3c0.1,6.7-1.1,13.3-3.4,19.5c-2.1,5.7-5.3,10.9-9.5,15.3c-4.2,4.3-9.2,7.7-14.8,9.9
		c-12.2,4.7-25.8,4.7-38,0c-5.6-2.2-10.6-5.6-14.8-9.9c-4.2-4.4-7.4-9.6-9.5-15.3c-2.3-6.2-3.4-12.8-3.4-19.5
		c-0.1-6.7,1.1-13.3,3.4-19.5c2.1-5.7,5.3-10.9,9.5-15.3c4.2-4.3,9.2-7.7,14.7-10c12.2-4.7,25.8-4.7,38,0c5.6,2.3,10.6,5.7,14.8,10
		c4.2,4.4,7.4,9.6,9.5,15.3C430.4,44.1,431.6,50.7,431.5,57.3z M418.3,57.3c0.1-5.3-0.7-10.6-2.4-15.6c-1.4-4.3-3.7-8.3-6.7-11.7
		c-2.9-3.2-6.5-5.7-10.6-7.4c-8.9-3.4-18.8-3.4-27.7,0c-4,1.6-7.6,4.2-10.6,7.4c-3,3.4-5.4,7.4-6.8,11.7c-1.6,5-2.4,10.3-2.4,15.6
		c-0.1,5.3,0.7,10.6,2.4,15.6c1.4,4.3,3.7,8.3,6.8,11.7c2.9,3.2,6.6,5.7,10.6,7.3c8.9,3.4,18.8,3.4,27.7,0c4-1.6,7.6-4.1,10.6-7.3
		c3-3.4,5.3-7.4,6.7-11.7C417.6,67.9,418.4,62.6,418.3,57.3z"/>
	<path class="st0" d="M526.4,10v94.6H520c-0.9,0-1.7-0.1-2.5-0.5c-0.8-0.5-1.5-1.1-2-1.8L460.7,31c0.1,1.1,0.1,2.2,0.2,3.2
		s0.1,2,0.1,3v67.4h-11.2V10h6.6c0.5,0,1,0,1.5,0.1c0.4,0.1,0.7,0.2,1.1,0.3c0.3,0.2,0.6,0.4,0.9,0.7c0.4,0.3,0.7,0.7,1,1.1
		l54.7,71.2c-0.1-1.2-0.2-2.3-0.2-3.3c-0.1-1.1-0.1-2.1-0.1-3.1V10L526.4,10z"/>
	<path class="st0" d="M598.9,24.8c-0.3,0.6-0.8,1.1-1.3,1.5c-0.5,0.3-1.1,0.5-1.7,0.5c-1-0.1-1.9-0.5-2.6-1.1
		c-1-0.8-2.3-1.6-3.8-2.5c-1.7-1-3.5-1.8-5.4-2.5c-2.5-0.8-5.1-1.2-7.8-1.1c-2.6,0-5.1,0.3-7.6,1.1c-2,0.7-3.9,1.7-5.5,3.1
		c-1.4,1.3-2.6,2.9-3.3,4.6c-0.8,1.8-1.1,3.8-1.1,5.8c-0.1,2.3,0.6,4.7,2,6.6c1.4,1.8,3.1,3.3,5.2,4.5c2.3,1.3,4.7,2.4,7.2,3.2
		c2.7,0.9,5.5,1.8,8.3,2.8s5.6,2.1,8.3,3.3c2.6,1.2,5.1,2.7,7.3,4.6c2.2,1.9,3.9,4.2,5.1,6.8c1.4,3.1,2.1,6.5,2,9.9
		c0,4-0.7,7.9-2.1,11.7c-1.4,3.6-3.5,6.8-6.2,9.5c-2.9,2.8-6.3,4.9-10,6.3c-4.3,1.6-8.8,2.4-13.4,2.3c-5.8,0.1-11.5-1.1-16.8-3.3
		c-4.9-2.1-9.2-5.2-12.9-9l3.7-6.1c0.4-0.5,0.8-0.9,1.3-1.2c0.5-0.3,1.1-0.5,1.7-0.5c0.7,0,1.4,0.3,2,0.7c0.7,0.5,1.5,1,2.5,1.8
		s2,1.5,3.2,2.3c1.3,0.9,2.6,1.7,4,2.3c1.7,0.8,3.4,1.3,5.2,1.8c2.1,0.5,4.3,0.7,6.5,0.7c2.8,0,5.5-0.4,8.1-1.2c2.2-0.8,4.3-2,6-3.5
		c1.6-1.5,2.9-3.4,3.8-5.4c0.9-2.2,1.4-4.6,1.4-7.1c0.1-2.5-0.6-4.9-2-7c-1.3-1.9-3.1-3.5-5-4.6c-2.3-1.3-4.7-2.4-7.3-3.1l-8.3-2.6
		c-2.8-0.9-5.6-2-8.3-3.1c-2.7-1.1-5.1-2.7-7.3-4.6c-2.2-2-3.9-4.4-5.1-7.1c-1.4-3.3-2.1-6.9-2-10.5c0-3.3,0.7-6.6,2-9.7
		c1.3-3.1,3.2-6,5.7-8.3c2.6-2.5,5.8-4.5,9.2-5.8c4-1.5,8.2-2.3,12.5-2.2c4.9-0.1,9.8,0.8,14.4,2.5c4.3,1.6,8.2,4.1,11.5,7.3
		L598.9,24.8z"/>
</g>
</svg>
