<?xml version="1.0" encoding="utf-8"?>
<!-- Generator: Adobe Illustrator 24.2.0, SVG Export Plug-In . SVG Version: 6.00 Build 0)  -->
<svg version="1.1" id="Layer_1" xmlns="http://www.w3.org/2000/svg" xmlns:xlink="http://www.w3.org/1999/xlink" x="0px" y="0px"
	 viewBox="0 0 465.3 116.8" style="enable-background:new 0 0 465.3 116.8;" xml:space="preserve">
<style type="text/css">
	.st0{fill:#333333;}
</style>
<g>
	<path class="st0" d="M22.9,105.6H10.1V11.1h12.8V105.6z"/>
	<path class="st0" d="M123.6,11.1v94.6h-6.4c-0.9,0-1.7-0.1-2.5-0.5c-0.8-0.5-1.5-1.1-2-1.8L58,32c0.1,1.1,0.2,2.2,0.2,3.2
		c0,1.1,0.1,2,0.1,3v67.3H47V11.1h6.6c0.5,0,1,0,1.5,0.1c0.4,0.1,0.7,0.2,1,0.3c0.3,0.2,0.7,0.4,0.9,0.7c0.4,0.3,0.7,0.7,1,1.1
		l54.7,71.2c-0.1-1.2-0.2-2.3-0.2-3.3s-0.1-2.1-0.1-3.1v-67L123.6,11.1z"/>
	<path class="st0" d="M175.7,11.1c5.3-0.1,10.5,0.6,15.6,2.1c4,1.2,7.8,3.2,11,5.9c2.9,2.5,5.1,5.7,6.5,9.2c1.5,3.9,2.2,8,2.1,12.1
		c0.1,4.1-0.7,8.2-2.3,12.1c-1.5,3.6-3.8,6.8-6.8,9.4c-3.2,2.8-7,4.9-11,6.2c-4.9,1.5-10,2.3-15.1,2.2h-15.2v35.4h-12.7V11.1H175.7z
		 M175.7,60.1c3.3,0.1,6.6-0.4,9.7-1.5c2.6-0.9,5-2.2,7.1-4.1c1.9-1.7,3.4-3.8,4.4-6.2c1-2.5,1.5-5.3,1.4-8c0-6-1.9-10.7-5.6-14.1
		s-9.4-5.1-17-5.1h-15.2v38.9L175.7,60.1z"/>
	<path class="st0" d="M263.6,95.5c3.6,0.1,7.2-0.6,10.5-2c3-1.3,5.7-3.1,7.8-5.5c2.2-2.5,3.9-5.4,4.9-8.5c1.2-3.5,1.7-7.2,1.7-10.9
		V11.1h12.7v57.5c0,5.2-0.8,10.3-2.6,15.2c-1.6,4.5-4.2,8.6-7.5,12.1c-3.3,3.5-7.4,6.2-11.9,8c-10.1,3.9-21.3,3.9-31.4,0
		c-4.5-1.8-8.5-4.5-11.9-8c-3.3-3.5-5.8-7.6-7.5-12.1c-1.8-4.9-2.7-10-2.6-15.2V11.1h12.7v57.4c0,3.7,0.5,7.4,1.7,10.9
		c1,3.1,2.7,6,4.9,8.5c2.2,2.4,4.9,4.3,7.9,5.6C256.4,94.9,259.9,95.5,263.6,95.5z"/>
	<path class="st0" d="M388.1,21.8h-30.6v83.8h-12.7V21.8H314V11.1h74L388.1,21.8z"/>
	<path class="st0" d="M450.1,25.8c-0.3,0.6-0.8,1.1-1.3,1.5c-0.5,0.3-1.1,0.5-1.7,0.5c-1-0.1-1.9-0.5-2.6-1.1
		c-1-0.8-2.3-1.6-3.8-2.5c-1.7-1-3.6-1.8-5.5-2.4c-2.5-0.8-5.1-1.2-7.8-1.1c-2.6-0.1-5.1,0.3-7.6,1.1c-2,0.7-3.9,1.7-5.5,3.1
		c-1.4,1.3-2.6,2.9-3.3,4.7c-0.8,1.8-1.1,3.8-1.1,5.8c-0.1,2.3,0.6,4.7,1.9,6.6c1.4,1.8,3.1,3.3,5.1,4.5c2.3,1.3,4.7,2.4,7.3,3.2
		c2.7,0.9,5.5,1.8,8.3,2.8c2.8,1,5.6,2.1,8.3,3.3c2.6,1.2,5.1,2.7,7.3,4.6c2.2,1.9,3.9,4.2,5.1,6.8c1.4,3.1,2.1,6.5,2,9.9
		c0,4-0.7,7.9-2.1,11.7c-1.4,3.6-3.5,6.8-6.2,9.5c-2.9,2.8-6.3,4.9-10,6.3c-4.3,1.6-8.8,2.4-13.4,2.3c-5.8,0.1-11.5-1-16.8-3.3
		c-4.9-2.1-9.2-5.2-12.9-9l3.7-6.1c0.3-0.5,0.8-0.9,1.3-1.2c0.5-0.3,1.1-0.5,1.7-0.5c0.7,0,1.4,0.3,2,0.7c0.7,0.5,1.5,1,2.5,1.8
		s2,1.5,3.2,2.3c1.3,0.9,2.6,1.7,4.1,2.3c1.7,0.8,3.4,1.3,5.2,1.8c2.1,0.5,4.3,0.7,6.5,0.7c2.8,0,5.5-0.4,8.1-1.3
		c2.2-0.8,4.3-2,6-3.5c1.7-1.5,2.9-3.4,3.8-5.4c0.9-2.2,1.4-4.6,1.4-7c0.1-2.5-0.6-4.9-2-7c-1.4-1.9-3.1-3.4-5.1-4.6
		c-2.3-1.3-4.7-2.4-7.3-3.1l-8.3-2.6c-2.8-0.9-5.6-2-8.3-3.1c-2.6-1.1-5.1-2.7-7.3-4.6c-2.2-2-3.9-4.4-5.1-7.1
		c-1.4-3.3-2.1-6.9-2-10.5c0-6.8,2.8-13.3,7.6-18c2.7-2.5,5.8-4.5,9.2-5.9c4-1.5,8.2-2.3,12.5-2.2c4.9-0.1,9.8,0.8,14.4,2.5
		c4.3,1.6,8.2,4.1,11.4,7.3L450.1,25.8z"/>
</g>
</svg>
