<?xml version="1.0" encoding="utf-8"?>
<!-- Generator: Adobe Illustrator 24.2.0, SVG Export Plug-In . SVG Version: 6.00 Build 0)  -->
<svg version="1.1" id="Layer_1" xmlns="http://www.w3.org/2000/svg" xmlns:xlink="http://www.w3.org/1999/xlink" x="0px" y="0px"
	 viewBox="0 0 625.9 114.3" style="enable-background:new 0 0 625.9 114.3;" xml:space="preserve">
<style type="text/css">
	.st0{fill:#333333;}
</style>
<g>
	<path class="st0" d="M64.2,24.6c-0.3,0.6-0.8,1.1-1.3,1.5c-0.5,0.3-1.1,0.5-1.7,0.5c-1-0.1-1.9-0.5-2.6-1.1c-1-0.8-2.3-1.6-3.8-2.5
		c-1.7-1-3.6-1.8-5.5-2.4c-2.5-0.8-5.1-1.2-7.8-1.1c-2.6-0.1-5.1,0.3-7.5,1.1c-2,0.7-3.9,1.7-5.5,3.1c-1.4,1.3-2.6,2.9-3.3,4.7
		c-0.8,1.8-1.1,3.8-1.1,5.8c-0.1,2.4,0.6,4.7,2,6.6c1.4,1.8,3.1,3.3,5.1,4.5c2.3,1.3,4.7,2.4,7.3,3.2c2.7,0.9,5.5,1.8,8.3,2.8
		s5.6,2.1,8.3,3.3c2.6,1.2,5.1,2.7,7.3,4.6c2.2,1.9,3.9,4.2,5.2,6.8c1.4,3.1,2.1,6.5,2,9.9c0,4-0.7,7.9-2.1,11.7
		c-1.4,3.6-3.5,6.8-6.2,9.5c-2.9,2.8-6.3,4.9-10,6.3c-4.3,1.6-8.8,2.4-13.4,2.3c-5.8,0.1-11.5-1.1-16.8-3.3c-4.8-2.1-9.2-5.2-12.8-9
		l3.7-6.1c0.3-0.5,0.8-0.9,1.3-1.2c0.5-0.3,1.1-0.5,1.7-0.5c0.7,0,1.4,0.3,1.9,0.7c0.7,0.5,1.6,1,2.5,1.8c0.9,0.8,2,1.5,3.2,2.3
		c1.3,0.9,2.6,1.7,4.1,2.3c1.7,0.8,3.4,1.3,5.2,1.8c2.1,0.5,4.3,0.7,6.5,0.7c2.7,0,5.5-0.4,8.1-1.3c2.2-0.8,4.3-2,6-3.5
		c1.6-1.5,2.9-3.4,3.8-5.5c0.9-2.2,1.4-4.6,1.4-7c0.1-2.5-0.6-4.9-1.9-7c-1.4-1.9-3.1-3.4-5.1-4.6c-2.3-1.3-4.7-2.4-7.3-3.1
		l-8.3-2.7c-2.8-0.9-5.6-2-8.3-3.1c-2.7-1.1-5.1-2.7-7.3-4.6c-2.2-2-3.9-4.4-5.1-7.1c-1.4-3.3-2-6.9-1.9-10.5c0-3.3,0.7-6.6,1.9-9.7
		c1.3-3.1,3.2-6,5.7-8.3c2.6-2.5,5.8-4.5,9.2-5.8c4-1.5,8.2-2.3,12.5-2.2c4.9-0.1,9.8,0.8,14.4,2.5c4.3,1.6,8.2,4.1,11.5,7.3
		L64.2,24.6z"/>
	<path class="st0" d="M115.4,9.9c5.3-0.1,10.5,0.6,15.6,2.1c4,1.2,7.8,3.2,11,5.9c2.9,2.5,5.1,5.7,6.5,9.2c1.5,3.9,2.2,8,2.1,12.1
		c0.1,4.1-0.7,8.2-2.3,12.1c-1.5,3.6-3.8,6.8-6.8,9.4c-3.2,2.8-7,4.9-11,6.2c-4.9,1.5-10,2.3-15.2,2.2h-15.2v35.4H87.4V9.9H115.4z
		 M115.4,58.9c3.3,0.1,6.5-0.4,9.7-1.4c2.6-0.9,5-2.2,7.1-4.1c1.9-1.7,3.4-3.8,4.3-6.2c1-2.5,1.5-5.3,1.5-8c0-6-1.9-10.7-5.6-14.1
		s-9.4-5.1-16.9-5h-15.2V59L115.4,58.9z"/>
	<path class="st0" d="M179.5,104.4h-12.8V9.9h12.8V104.4z"/>
	<path class="st0" d="M280.3,9.9v94.6h-6.4c-0.9,0-1.7-0.1-2.5-0.5c-0.8-0.5-1.5-1.1-2-1.8l-54.7-71.3c0.1,1.1,0.2,2.2,0.2,3.2
		s0.1,2,0.1,3v67.3h-11.2V9.9h6.6c0.5,0,1,0,1.4,0.1s0.7,0.2,1.1,0.3c0.3,0.2,0.6,0.4,0.9,0.7c0.4,0.3,0.7,0.7,1,1.1l54.7,71.2
		c-0.1-1.2-0.2-2.3-0.2-3.3s-0.1-2.1-0.1-3.1v-67L280.3,9.9z"/>
	<path class="st0" d="M381.1,9.9v94.6h-6.4c-0.9,0-1.7-0.1-2.5-0.5c-0.8-0.5-1.5-1.1-2-1.8l-54.7-71.3c0.1,1.1,0.2,2.2,0.2,3.2
		s0.1,2,0.1,3v67.3h-11.2V9.9h6.6c0.5,0,1,0,1.5,0.1c0.4,0.1,0.7,0.2,1.1,0.3c0.3,0.2,0.6,0.4,0.9,0.7c0.4,0.3,0.7,0.7,1,1.1
		l54.7,71.2c-0.1-1.2-0.2-2.3-0.2-3.3s-0.1-2.1-0.1-3.1v-67L381.1,9.9z"/>
	<path class="st0" d="M463.6,94l-0.1,10.4h-58.3V9.9h58.3v10.4H418v31.4h36.9v10h-36.8V94H463.6z"/>
	<path class="st0" d="M551.4,104.4h-11.3c-2.1,0.1-4.1-0.9-5.2-2.7l-24.5-33.8c-0.6-0.9-1.4-1.7-2.4-2.3c-1.3-0.5-2.6-0.8-4-0.7
		h-9.7v39.5h-12.7V9.9h26.7c5.2-0.1,10.4,0.5,15.5,1.8c3.9,1,7.6,2.8,10.8,5.2c2.8,2.2,4.9,5,6.3,8.3c1.4,3.4,2.1,7.1,2,10.9
		c0,3.2-0.5,6.4-1.6,9.4c-1,2.9-2.6,5.5-4.6,7.8c-2.1,2.4-4.6,4.4-7.3,5.9c-3.1,1.7-6.4,2.9-9.8,3.7c1.7,1,3.1,2.4,4.2,4
		L551.4,104.4z M507.7,55.7c3.3,0.1,6.6-0.4,9.8-1.3c2.6-0.8,5-2.1,7.1-3.8c1.9-1.6,3.4-3.6,4.3-5.9c1-2.4,1.5-5,1.5-7.6
		c0-5.6-1.8-9.9-5.5-12.7c-3.7-2.9-9.3-4.3-16.7-4.3h-14v35.6H507.7z"/>
	<path class="st0" d="M612.6,24.6c-0.3,0.6-0.8,1.1-1.3,1.5c-0.5,0.3-1.1,0.5-1.7,0.5c-1-0.1-1.9-0.5-2.6-1.1
		c-1-0.8-2.3-1.6-3.8-2.5c-1.7-1-3.6-1.8-5.5-2.4c-2.5-0.8-5.1-1.2-7.8-1.1c-2.6-0.1-5.1,0.3-7.6,1.1c-2,0.7-3.9,1.7-5.5,3.1
		c-1.4,1.3-2.6,2.9-3.3,4.7c-0.8,1.8-1.1,3.8-1.1,5.8c-0.1,2.3,0.6,4.7,1.9,6.6c1.4,1.8,3.1,3.3,5.2,4.5c2.3,1.3,4.7,2.4,7.3,3.2
		c2.7,0.9,5.5,1.8,8.3,2.8s5.6,2.1,8.3,3.3c2.6,1.2,5.1,2.7,7.3,4.6s3.9,4.2,5.2,6.8c1.4,3.1,2.1,6.5,2,9.9c0,4-0.7,7.9-2.1,11.7
		c-1.4,3.6-3.5,6.8-6.2,9.5c-2.9,2.8-6.3,4.9-10,6.3c-4.3,1.6-8.8,2.4-13.4,2.3c-5.8,0.1-11.5-1.1-16.8-3.3c-4.8-2.1-9.2-5.2-12.9-9
		l3.7-6.1c0.3-0.5,0.8-0.9,1.3-1.2c0.5-0.3,1.1-0.5,1.7-0.5c0.7,0,1.4,0.3,2,0.7c0.7,0.5,1.5,1,2.5,1.8c0.9,0.8,2,1.5,3.2,2.3
		c1.3,0.9,2.6,1.7,4.1,2.3c1.7,0.8,3.4,1.3,5.2,1.8c2.1,0.5,4.3,0.7,6.5,0.7c2.7,0,5.5-0.4,8.1-1.3c2.2-0.8,4.3-2,6-3.5
		s2.9-3.4,3.8-5.5c0.9-2.2,1.4-4.6,1.4-7c0.1-2.5-0.6-4.9-2-7c-1.4-1.9-3.1-3.4-5.1-4.6c-2.3-1.3-4.7-2.4-7.3-3.1l-8.3-2.6
		c-2.8-0.9-5.6-2-8.3-3.1s-5.1-2.7-7.3-4.6c-2.2-2-3.9-4.4-5.1-7.1c-1.4-3.3-2.1-6.9-2-10.5c0-3.3,0.7-6.6,2-9.7s3.2-6,5.7-8.3
		c2.7-2.5,5.8-4.5,9.2-5.9c4-1.5,8.2-2.3,12.5-2.2c4.9-0.1,9.8,0.8,14.4,2.5c4.3,1.6,8.2,4.1,11.5,7.3L612.6,24.6z"/>
</g>
</svg>
