<?xml version="1.0" encoding="utf-8"?>
<!-- Generator: Adobe Illustrator 24.2.0, SVG Export Plug-In . SVG Version: 6.00 Build 0)  -->
<svg version="1.1" id="Layer_1" xmlns="http://www.w3.org/2000/svg" xmlns:xlink="http://www.w3.org/1999/xlink" x="0px" y="0px"
	 viewBox="0 0 600 114.6" style="enable-background:new 0 0 600 114.6;" xml:space="preserve">
<style type="text/css">
	.st0{fill:#333333;}
</style>
<g>
	<path class="st0" d="M84.1,20.7H53.5v83.8H40.7V20.7H10V10h74.1V20.7z"/>
	<path class="st0" d="M181.2,57.3c0.1,6.6-1,13.3-3.3,19.5c-2.1,5.7-5.3,10.9-9.5,15.3c-4.2,4.3-9.2,7.7-14.8,9.9
		c-6,2.4-12.5,3.6-19,3.5c-6.5,0.1-13-1.1-19-3.5c-5.5-2.2-10.6-5.6-14.7-9.9c-4.2-4.4-7.5-9.6-9.6-15.3C89.1,70.6,87.9,64,88,57.3
		c-0.1-6.7,1.1-13.3,3.4-19.5c2.1-5.7,5.3-10.9,9.5-15.3c4.1-4.3,9.2-7.7,14.7-10c12.2-4.7,25.8-4.7,38,0c5.6,2.3,10.6,5.7,14.8,10
		c4.2,4.4,7.5,9.6,9.6,15.3C180.2,44.1,181.3,50.7,181.2,57.3z M168.1,57.3c0.1-5.3-0.7-10.6-2.4-15.6c-1.4-4.3-3.7-8.3-6.7-11.7
		c-2.9-3.2-6.5-5.7-10.6-7.4c-8.9-3.4-18.8-3.4-27.6,0c-4,1.6-7.7,4.2-10.6,7.4c-3,3.4-5.3,7.4-6.8,11.7c-1.6,5-2.4,10.3-2.4,15.6
		c-0.1,5.3,0.7,10.6,2.4,15.6c1.4,4.3,3.7,8.3,6.8,11.7c2.9,3.2,6.6,5.7,10.6,7.3c8.9,3.4,18.7,3.4,27.6,0c4-1.6,7.6-4.1,10.6-7.3
		c3-3.4,5.3-7.4,6.7-11.7C167.4,67.9,168.2,62.6,168.1,57.3z"/>
	<path class="st0" d="M276.4,59.1v36.3c-4.6,3.4-9.8,6-15.2,7.7c-5.7,1.7-11.7,2.6-17.7,2.5c-7,0.1-14-1.1-20.6-3.5
		c-5.9-2.2-11.2-5.6-15.7-9.9c-4.4-4.3-7.8-9.5-10-15.3c-2.4-6.3-3.6-12.9-3.5-19.6c-0.1-6.7,1.1-13.4,3.4-19.7
		c2.1-5.7,5.4-10.9,9.7-15.3c4.3-4.3,9.5-7.7,15.2-9.9c6.4-2.4,13.2-3.6,20.1-3.5c3.5,0,7,0.3,10.4,0.8c3,0.5,6,1.3,8.9,2.4
		c2.6,1,5.2,2.3,7.5,3.8c2.3,1.5,4.5,3.1,6.5,5l-3.6,5.8c-0.5,0.8-1.3,1.4-2.2,1.7c-1,0.2-2.1,0-3-0.6c-1.1-0.6-2.3-1.4-3.6-2.2
		c-1.6-1-3.3-1.8-5-2.5c-2.2-0.9-4.6-1.6-6.9-2.1c-3.1-0.6-6.3-0.9-9.5-0.9c-4.9-0.1-9.8,0.8-14.4,2.6c-4.2,1.6-7.9,4.2-11,7.5
		c-3.1,3.4-5.5,7.4-7,11.7c-1.7,5-2.5,10.2-2.5,15.4c-0.1,5.4,0.8,10.8,2.5,15.9c1.5,4.4,4,8.5,7.3,11.9c3.2,3.3,7.1,5.9,11.5,7.5
		c8.6,3,18,3.4,26.8,1.1c3.5-1,6.8-2.4,10-4.1V68.9h-14.7c-0.7,0-1.5-0.2-2-0.7c-0.5-0.5-0.8-1.1-0.8-1.8v-7.3H276.4z"/>
	<path class="st0" d="M372.8,59.1v36.3c-4.6,3.4-9.8,6-15.2,7.7c-5.7,1.7-11.7,2.6-17.7,2.5c-7,0.1-14-1.1-20.6-3.5
		c-5.9-2.2-11.2-5.6-15.7-9.9c-4.4-4.3-7.8-9.5-10-15.3c-2.4-6.3-3.6-12.9-3.5-19.6c-0.1-6.7,1.1-13.4,3.4-19.7
		c2.1-5.7,5.4-10.9,9.7-15.3c4.3-4.3,9.5-7.7,15.2-9.9c6.4-2.4,13.2-3.6,20.1-3.5c3.5,0,7,0.3,10.5,0.8c3,0.5,6,1.3,8.9,2.4
		c2.6,1,5.2,2.3,7.6,3.8c2.3,1.5,4.5,3.1,6.5,5l-3.7,5.8c-0.5,0.8-1.3,1.4-2.2,1.7c-1,0.2-2.1,0-3-0.6c-1-0.6-2.3-1.4-3.6-2.2
		c-1.6-1-3.3-1.8-5-2.5c-2.2-0.9-4.6-1.6-6.9-2.1c-3.1-0.6-6.3-0.9-9.5-0.9c-4.9-0.1-9.9,0.8-14.5,2.6c-4.2,1.6-7.9,4.2-11,7.5
		c-3.1,3.4-5.5,7.4-7,11.7c-1.7,5-2.5,10.2-2.5,15.5c-0.1,5.4,0.8,10.8,2.5,15.9c1.5,4.4,4,8.5,7.2,11.9c3.2,3.3,7.1,5.9,11.5,7.5
		c8.6,3,18,3.4,26.8,1.1c3.5-1,6.8-2.4,10-4.1V68.9h-14.7c-0.7,0-1.5-0.2-2-0.7c-0.5-0.5-0.8-1.1-0.8-1.8v-7.3H372.8z"/>
	<path class="st0" d="M446,93.8v10.8h-53.6V10h12.7v83.8H446z"/>
	<path class="st0" d="M518.5,94.2l-0.1,10.4h-58.3V10h58.3v10.4h-45.5v31.4h36.8v10h-36.8v32.3H518.5z"/>
	<path class="st0" d="M584.8,24.8c-0.3,0.6-0.8,1.1-1.3,1.5c-0.5,0.3-1.1,0.5-1.7,0.5c-1-0.1-1.9-0.5-2.7-1.1
		c-1-0.8-2.3-1.6-3.8-2.5c-1.7-1-3.6-1.8-5.4-2.4c-2.5-0.8-5.1-1.2-7.8-1.1c-2.6-0.1-5.1,0.3-7.6,1.1c-2,0.7-3.9,1.7-5.5,3.1
		c-1.4,1.3-2.6,2.9-3.3,4.7c-0.8,1.8-1.1,3.8-1.1,5.8c-0.1,2.3,0.6,4.7,1.9,6.6c1.4,1.8,3.1,3.3,5.2,4.5c2.3,1.3,4.7,2.4,7.3,3.2
		c2.7,0.9,5.5,1.8,8.3,2.8c2.8,1,5.6,2.1,8.3,3.3c2.6,1.2,5.1,2.7,7.3,4.6c2.2,1.9,3.9,4.2,5.2,6.8c1.4,3.1,2.1,6.5,2,9.9
		c0,4-0.7,7.9-2.1,11.7c-1.4,3.6-3.5,6.8-6.2,9.5c-2.9,2.8-6.3,4.9-10,6.3c-4.3,1.6-8.8,2.4-13.4,2.3c-5.8,0.1-11.5-1.1-16.8-3.3
		c-4.9-2.1-9.2-5.2-12.9-9l3.7-6.1c0.3-0.5,0.8-0.9,1.3-1.2c0.5-0.3,1.1-0.5,1.7-0.5c0.7,0,1.4,0.3,2,0.7c0.7,0.5,1.5,1,2.5,1.8
		s2,1.5,3.2,2.3c1.3,0.9,2.6,1.7,4.1,2.3c1.7,0.8,3.4,1.3,5.2,1.8c2.1,0.5,4.3,0.7,6.5,0.7c2.7,0,5.5-0.4,8-1.3c2.2-0.8,4.3-2,6-3.5
		c1.7-1.5,2.9-3.4,3.8-5.4c0.9-2.2,1.4-4.6,1.4-7c0.1-2.5-0.6-4.9-2-7c-1.3-1.9-3.1-3.5-5.1-4.6c-2.3-1.3-4.7-2.4-7.3-3.1l-8.3-2.6
		c-2.8-0.9-5.6-2-8.3-3.1c-2.7-1.1-5.1-2.7-7.3-4.6c-2.2-2-3.9-4.4-5.1-7.1c-1.4-3.3-2.1-6.9-2-10.5c0-6.8,2.8-13.3,7.6-18
		c2.6-2.5,5.8-4.5,9.2-5.8c4-1.5,8.3-2.3,12.5-2.2c4.9-0.1,9.8,0.8,14.4,2.5c4.3,1.6,8.2,4.1,11.5,7.3L584.8,24.8z"/>
</g>
</svg>
